HIERARCHY
ROOT SpineBase
{
  OFFSET 0.000000 0.000000 0.000000
  CHANNELS 6 Xposition Yposition Zposition Zrotation Xrotation Yrotation
  JOINT SpineMid
  {
    OFFSET -0.000000 30.429564 0.000000
    CHANNELS 3 Zrotation Xrotation Yrotation
    JOINT SpineShoulder
    {
      OFFSET -0.071774 22.646486 -0.770490
      CHANNELS 3 Zrotation Xrotation Yrotation
      JOINT Neck
      {
        OFFSET -0.065080 7.515615 -0.576821
        CHANNELS 3 Zrotation Xrotation Yrotation
        JOINT Head
        {
          OFFSET -3.298133 13.659421 2.001733
          CHANNELS 3 Zrotation Xrotation Yrotation
          End Site
          {
            OFFSET 0 0 0
          }
        }
      }
      JOINT ShoulderLeft
      {
        OFFSET -15.327542 -2.369456 11.192890
        CHANNELS 3 Zrotation Xrotation Yrotation
        JOINT ElbowLeft
        {
          OFFSET -2.821362 -32.168507 1.923836
          CHANNELS 3 Zrotation Xrotation Yrotation
          JOINT WristLeft
          {
            OFFSET 0.109107 -23.426205 -5.424728
            CHANNELS 3 Zrotation Xrotation Yrotation
            JOINT HandLeft
            {
              OFFSET -0.097789 -3.225660 -0.748143
              CHANNELS 3 Zrotation Xrotation Yrotation
              JOINT HandTipLeft
              {
                OFFSET 0.076155 -7.060185 -1.245803
                CHANNELS 3 Zrotation Xrotation Yrotation
                End Site
                {
                  OFFSET 0 0 0
                }
              }
              JOINT ThumbLeft
              {
                OFFSET 4.432057 2.545109 -4.061748
                CHANNELS 3 Zrotation Xrotation Yrotation
                End Site
                {
                  OFFSET 0 0 0
                }
              }
            }
          }
        }
      }
      JOINT ShoulderRight
      {
        OFFSET 11.717791 -2.262899 -7.264882
        CHANNELS 3 Zrotation Xrotation Yrotation
        JOINT ElbowRight
        {
          OFFSET 8.866213 -27.873469 -3.437568
          CHANNELS 3 Zrotation Xrotation Yrotation
          JOINT WristRight
          {
            OFFSET 1.275129 -23.126970 -6.493265
            CHANNELS 3 Zrotation Xrotation Yrotation
            JOINT HandRight
            {
              OFFSET -0.841951 -5.001661 0.993249
              CHANNELS 3 Zrotation Xrotation Yrotation
              JOINT HandTipRight
              {
                OFFSET -1.022055 -7.742440 -3.154119
                CHANNELS 3 Zrotation Xrotation Yrotation
                End Site
                {
                  OFFSET 0 0 0
                }
              }
              JOINT ThumbRight
              {
                OFFSET -3.452861 -1.591291 -5.865096
                CHANNELS 3 Zrotation Xrotation Yrotation
                End Site
                {
                  OFFSET 0 0 0
                }
              }
            }
          }
        }
      }
    }
  }
  JOINT HipLeft
  {
    OFFSET -6.421738 0.331697 -0.153462
    CHANNELS 3 Zrotation Xrotation Yrotation
    JOINT KneeLeft
    {
      OFFSET -0.444058 -35.435936 2.319896
      CHANNELS 3 Zrotation Xrotation Yrotation
      JOINT AnkleLeft
      {
        OFFSET -1.886912 -35.964734 10.317935
        CHANNELS 3 Zrotation Xrotation Yrotation
        JOINT FootLeft
        {
          OFFSET -5.583304 -2.853635 -11.790675
          CHANNELS 3 Zrotation Xrotation Yrotation
          End Site
          {
            OFFSET 0 0 0
          }
        }
      }
    }
  }
  JOINT HipRight
  {
    OFFSET 5.666698 2.001321 -6.511927
    CHANNELS 3 Zrotation Xrotation Yrotation
    JOINT KneeRight
    {
      OFFSET 8.310432 -33.035339 -7.397850
      CHANNELS 3 Zrotation Xrotation Yrotation
      JOINT AnkleRight
      {
        OFFSET 7.448439 -37.881254 8.057748
        CHANNELS 3 Zrotation Xrotation Yrotation
        JOINT FootRight
        {
          OFFSET -1.816108 -7.644001 -4.217483
          CHANNELS 3 Zrotation Xrotation Yrotation
          End Site
          {
            OFFSET 0 0 0
          }
        }
      }
    }
  }
}
MOTION
Frames: 12
Frame Time: 0.033333
35.653191 80.541300 300.255725 0.000000 0.000000 27.744178 -0.000000 0.000000 -27.744178 -0.000000 0.000000 0.000000 -0.000000 0.000000 0.000000 0.000000 0.000000 0.000000 -0.000000 0.000000 0.000000 -0.000000 0.000000 0.000000 -0.000000 0.000000 0.000000 -0.000000 0.000000 0.000000 0.000000 0.000000 0.000000 0.000000 0.000000 0.000000 -0.000000 0.000000 0.000000 -0.000000 0.000000 0.000000 -0.000000 0.000000 0.000000 -0.000000 0.000000 0.000000 0.000000 0.000000 0.000000 0.000000 0.000000 0.000000 -0.000000 0.000000 -27.744178 -0.000000 0.000000 0.000000 -0.000000 0.000000 0.000000 0.000000 0.000000 0.000000 -0.000000 0.000000 -27.744178 -0.000000 0.000000 0.000000 -0.000000 0.000000 0.000000 0.000000 0.000000 0.000000
35.709203 80.551307 300.261019 0.192132 0.177571 27.465196 -0.252374 -0.068943 -27.465646 -0.000000 0.000000 0.000000 -0.000000 0.000000 0.000000 0.000000 0.000000 0.000000 -0.774361 0.369320 -0.076177 -0.812701 0.656698 0.456516 -6.444436 -1.691789 1.334217 9.766185 -1.730963 -2.237068 0.000000 0.000000 0.000000 0.000000 0.000000 0.000000 -0.000000 0.000000 0.000000 -0.000000 0.000000 0.000000 -2.549223 3.005857 -0.946894 2.813975 -1.818671 0.845566 0.000000 0.000000 0.000000 0.000000 0.000000 0.000000 -0.252374 -0.068943 -27.465646 -0.000000 0.000000 0.000000 -0.000000 0.000000 0.000000 0.000000 0.000000 0.000000 -0.252374 -0.068943 -27.465646 -0.000000 0.000000 0.000000 -0.000000 0.000000 0.000000 0.000000 0.000000 0.000000
35.686930 80.548051 300.299315 0.338138 0.336512 27.197483 -0.454559 -0.144751 -27.199050 -0.000000 0.000000 0.000000 -1.126962 -0.495966 0.040648 0.000000 0.000000 0.000000 -1.442775 0.697976 -0.138616 -1.511910 1.225776 0.859837 -10.369678 -3.720678 1.846262 16.640084 -2.907082 -3.914016 0.000000 0.000000 0.000000 0.000000 0.000000 0.000000 -0.484625 -0.981682 -0.257270 0.480283 0.983813 0.248995 -4.817029 6.335318 -1.764705 5.230114 -4.260834 1.963995 0.000000 0.000000 0.000000 0.000000 0.000000 0.000000 -0.454559 -0.144751 -27.199050 -0.000000 0.000000 0.000000 0.103353 0.201257 -0.816492 0.000000 0.000000 0.000000 -1.394883 -0.590819 -27.271602 0.631486 0.827284 0.061957 0.995733 0.764935 -0.736582 0.000000 0.000000 0.000000
35.586373 80.531532 300.370612 0.437970 0.476716 26.940989 0.201583 0.068288 -26.920935 0.043157 0.059044 0.032275 -2.199998 -1.368605 -0.021102 0.000000 0.000000 0.000000 -2.631895 0.299445 -0.270806 -2.094262 1.711298 1.204429 -12.205817 -5.889604 1.789590 21.121457 -3.448448 -5.166294 0.000000 0.000000 0.000000 0.000000 0.000000 0.000000 -1.346333 -1.956936 -0.391714 0.776239 0.424970 0.243132 -6.853476 10.730617 -2.277091 7.229442 -7.261344 3.294466 0.000000 0.000000 0.000000 0.000000 0.000000 0.000000 -1.554058 -0.407416 -26.991770 1.533440 0.732781 0.243653 -0.630205 0.144567 -1.340422 0.000000 0.000000 0.000000 -1.866028 -0.877812 -27.060890 1.261950 1.837661 0.312700 1.001299 0.403090 -1.276510 0.000000 0.000000 0.000000
35.407530 80.501750 300.474911 0.491656 0.598113 26.695639 0.236572 0.076645 -26.672988 0.050414 0.067932 0.037205 -2.649323 -1.666415 -0.027284 0.000000 0.000000 0.000000 -3.169617 0.390825 -0.331374 -2.558372 2.117774 1.486062 -12.418322 -8.121666 1.399874 23.731587 -3.346346 -6.103755 0.000000 0.000000 0.000000 0.000000 0.000000 0.000000 -1.657193 -2.263966 -0.432622 0.864958 0.596159 0.301611 -8.316116 14.402961 -2.842594 8.807109 -10.747928 4.762418 0.000000 0.000000 0.000000 0.000000 0.000000 0.000000 -1.726345 -0.596636 -26.750532 1.822457 0.934658 0.309614 -0.872456 0.134709 -1.658020 0.000000 0.000000 0.000000 -2.187135 -1.155950 -26.865298 1.614088 2.361084 0.441222 1.166296 0.434608 -1.666310 0.000000 0.000000 0.000000
35.150403 80.458705 300.612210 0.499307 0.700665 26.461323 0.255721 0.077436 -26.437748 0.054116 0.071396 0.039247 -2.955744 -1.884954 -0.028537 0.000000 0.000000 0.000000 -3.534379 0.475428 -0.375016 -2.904215 2.449619 1.701612 -11.376639 -10.389243 0.856942 24.894611 -2.619595 -6.796264 0.000000 0.000000 0.000000 0.000000 0.000000 0.000000 -1.898815 -2.399141 -0.425739 1.139312 1.452673 0.305699 -9.566647 17.295168 -3.433880 9.968652 -14.646549 6.289073 0.000000 0.000000 0.000000 0.000000 0.000000 0.000000 -1.727120 -0.808313 -26.512294 2.002935 1.116102 0.369690 -1.132151 0.095890 -1.911820 0.000000 0.000000 0.000000 -2.359207 -1.423137 -26.683366 1.933987 2.840892 0.582755 1.245211 0.416195 -2.038917 0.000000 0.000000 0.000000
34.740375 80.397062 300.820569 0.447220 0.820121 26.159927 0.264225 0.065394 -26.137006 0.056754 0.068704 0.038524 -3.226745 -2.120702 -0.028136 0.000000 0.000000 0.000000 -3.686210 0.545335 -0.402229 -3.286965 2.771270 1.880126 -8.155273 -12.367859 0.200083 25.729855 -1.743246 -7.276713 0.000000 0.000000 0.000000 0.000000 0.000000 0.000000 -2.144360 -2.316525 -0.337178 1.423554 1.260971 0.208768 -10.866774 22.067724 -3.887329 11.226587 -20.995942 8.480643 0.000000 0.000000 0.000000 0.000000 0.000000 0.000000 -1.486829 -1.100138 -26.193067 2.046085 1.276437 0.431720 -1.456611 0.025751 -2.120199 0.000000 0.000000 0.000000 -2.322176 -1.728751 -26.444822 2.194546 3.279424 0.757240 1.181313 0.417768 -2.414570 0.000000 0.000000 0.000000
34.325614 80.326354 301.010358 0.390322 0.914439 25.854931 0.239500 0.047966 -25.833822 0.047345 0.056936 0.035107 -3.232660 -2.104674 0.004723 0.000000 0.000000 0.000000 -3.652649 0.628580 -0.410532 -3.377348 2.937763 1.934087 -5.424463 -14.209176 -0.217024 26.790625 -2.373525 -7.759584 0.000000 0.000000 0.000000 0.000000 0.000000 0.000000 -2.249850 -2.058875 -0.210651 0.501464 1.259899 0.438671 -10.370658 26.005917 -4.641957 11.361776 -25.641030 10.121627 0.000000 0.000000 0.000000 0.000000 0.000000 0.000000 -1.219329 -1.410437 -25.865654 2.064880 1.481204 0.489401 -1.793045 -0.076114 -2.247228 0.000000 0.000000 0.000000 -2.312170 -1.969610 -26.183259 2.586563 3.704515 0.922103 0.957822 0.295116 -2.729642 0.000000 0.000000 0.000000
33.826115 80.242651 301.253687 0.217374 0.916788 25.696495 0.191839 0.025474 -25.681036 0.035257 0.041265 0.025069 -2.884484 -1.952901 0.037174 0.000000 0.000000 0.000000 -3.514244 0.737247 -0.396497 -3.433651 3.272408 1.994940 -2.973310 -17.615723 -0.616267 24.578680 3.245564 -8.456667 0.000000 0.000000 0.000000 0.000000 0.000000 0.000000 -2.175255 -1.672593 -0.064144 0.184471 1.548167 0.490602 -9.640622 27.938654 -5.171921 10.390967 -27.908744 10.656979 0.000000 0.000000 0.000000 0.000000 0.000000 0.000000 -0.640480 -1.641239 -25.669443 1.931198 1.594523 0.537269 -2.118237 -0.213357 -2.305825 0.000000 0.000000 0.000000 -1.942226 -2.159791 -26.075312 2.759495 4.017248 1.101631 0.839088 0.069011 -3.053668 0.000000 0.000000 0.000000
33.335331 80.159523 301.494860 0.059025 0.929778 25.698668 0.164300 -0.004091 -25.687691 0.028481 0.029773 0.017044 -2.687132 -1.941247 0.045521 0.000000 0.000000 0.000000 -3.300024 0.676606 -0.370666 -2.974034 3.119246 1.857089 -0.216142 -19.990584 -0.678665 18.467797 11.263749 -7.628697 0.000000 0.000000 0.000000 0.000000 0.000000 0.000000 -2.129233 -1.228729 0.102981 -0.050090 1.732023 0.488820 -8.063224 28.728756 -5.621862 9.781162 -31.074045 10.886411 0.000000 0.000000 0.000000 0.000000 0.000000 0.000000 -0.044598 -1.849360 -25.629633 1.730173 1.689326 0.572243 -2.405749 -0.375836 -2.323077 0.000000 0.000000 0.000000 -1.613722 -2.344099 -26.124977 2.969589 4.328861 1.277648 0.746120 -0.321759 -3.363359 0.000000 0.000000 0.000000
32.849552 80.060279 301.762772 -0.127735 0.846102 25.829148 0.144063 -0.012711 -25.824034 0.024434 0.025460 0.007533 -2.445086 -1.823707 0.067871 0.000000 0.000000 0.000000 -2.963549 0.622503 -0.328820 -2.444349 2.732355 1.657937 5.912528 -22.717747 -0.542728 7.535273 18.123455 -4.249389 0.000000 0.000000 0.000000 0.000000 0.000000 0.000000 -2.003163 -0.708601 0.273854 -0.140385 1.816020 0.425152 -6.506616 28.719210 -5.909076 7.698131 -31.699500 10.268123 0.000000 0.000000 0.000000 0.000000 0.000000 0.000000 0.623398 -1.881413 -25.720137 1.535249 1.673244 0.606618 -2.664940 -0.547820 -2.281295 0.000000 0.000000 0.000000 -1.076128 -2.378335 -26.284793 3.043359 4.439707 1.431597 0.780130 -0.743529 -3.674588 0.000000 0.000000 0.000000
32.462773 79.966558 302.008842 -0.252625 0.744564 26.071273 0.168280 -0.002563 -26.069307 0.033651 0.032144 0.003316 -2.057267 -1.590124 0.085635 0.000000 0.000000 0.000000 -2.646939 0.352862 -0.280745 -1.494994 2.056018 1.309005 12.434158 -21.563847 -0.446741 -2.914086 15.907007 0.052067 0.000000 0.000000 0.000000 0.000000 0.000000 0.000000 -1.828260 -0.220892 0.415777 -0.255123 1.651302 0.323689 -5.321477 27.721287 -5.927831 6.326948 -31.257081 9.544883 0.000000 0.000000 0.000000 0.000000 0.000000 0.000000 0.990726 -1.821082 -25.945744 1.649135 1.746872 0.666952 -2.998702 -0.778018 -2.151790 0.000000 0.000000 0.000000 -0.688723 -2.297831 -26.526568 3.266709 4.465078 1.545556 3.394147 -5.709547 -4.104992 0.000000 0.000000 0.000000
